<?xml version="1.0" encoding="UTF-8" standalone="no"?>
<svg
   xmlns:dc="http://purl.org/dc/elements/1.1/"
   xmlns:cc="http://creativecommons.org/ns#"
   xmlns:rdf="http://www.w3.org/1999/02/22-rdf-syntax-ns#"
   xmlns:svg="http://www.w3.org/2000/svg"
   xmlns="http://www.w3.org/2000/svg"
   id="svg8"
   version="1.1"
   viewBox="0 0 83.490234 116.84915"
   height="116.84914mm"
   width="83.490234mm">
  <defs
     id="defs2">
    <clipPath
       clipPathUnits="userSpaceOnUse"
       id="clipPath853">
      <path
         d="m 65.28,714.84 h 504.48 v -684 H 65.28 Z"
         id="path851" />
    </clipPath>
  </defs>
  <metadata
     id="metadata5">
    <rdf:RDF>
      <cc:Work
         rdf:about="">
        <dc:format>image/svg+xml</dc:format>
        <dc:type
           rdf:resource="http://purl.org/dc/dcmitype/StillImage" />
        <dc:title></dc:title>
      </cc:Work>
    </rdf:RDF>
  </metadata>
  <g
     transform="translate(-27.437117,-33.682146)"
     id="layer1">
    <g
       id="g4591">
      <text
         style="font-variant:normal;font-weight:normal;font-size:4.93889px;font-family:PSOwsthelvnpsb;-inkscape-font-specification:PSOwsthelvnpsb;writing-mode:lr-tb;fill:#000000;fill-opacity:1;fill-rule:nonzero;stroke:none;stroke-width:0.352778"
         id="text2365"
         x="30.61758"
         y="38.347729"><tspan
           x="30.61758 33.091965 36.015789 38.717358 40.969494 43.221626 45.473759"
           y="38.347729"
           id="tspan2359"
           style="stroke-width:0.352778">TCS3472</tspan><tspan
           x="30.61758 33.541405 36.692417 39.166798 42.31781 45.305836 46.530682 49.005066 50.13113 53.282143 56.205963 58.467976 59.821228 62.236347 65.38736 66.740616 69.664436 70.790504 73.941521 75.067581 77.34935 80.27317 82.747559 83.972404 86.896225 90.047234 92.971054 95.67263 98.374199 101.29803 103.77241 106.47398"
           y="43.301437"
           id="tspan2361"
           style="stroke-width:0.352778">COLOR LIGHT-TO-DIGITAL CONVERTER</tspan><tspan
           x="30.61758 33.768593 34.894661 36.247917 38.722298 39.936771 41.062836 43.98666 45.20113 47.675514 48.801582 50.979633 53.454014 56.155586"
           y="48.21069"
           id="tspan2363"
           style="stroke-width:0.352778">with IR FILTER</tspan></text>
      <text
         style="font-variant:normal;font-weight:normal;font-size:2.46944px;font-family:Helvetica;-inkscape-font-specification:Helvetica;writing-mode:lr-tb;fill:#000000;fill-opacity:1;fill-rule:nonzero;stroke:none;stroke-width:0.352778"
         id="text2369"
         x="30.61758"
         y="51.174728"><tspan
           x="30.61758 31.928856 33.573505 35.492264 37.136917 38.507458 39.877998 41.186802 41.870838 43.296204 43.965916 45.596245 47.362389 49.266827 51.03297 52.6633 54.155338 54.82505 56.181267 57.537491 58.893707"
           y="51.174728"
           id="tspan2367"
           style="stroke-width:0.352778">TAOS135 − AUGUST 2012</tspan></text>
      <text
         style="font-variant:normal;font-weight:normal;font-size:2.46944px;font-family:Helvetica;-inkscape-font-specification:Helvetica;writing-mode:lr-tb;fill:#000000;fill-opacity:1;fill-rule:nonzero;stroke:none;stroke-width:0.352778"
         id="text2601"
         x="53.152523"
         y="149.0116"><tspan
           x="53.152523 54.923607 56.284767 57.645924 58.868793 59.679264 60.215626 61.576782 62.937943 63.612595"
           y="149.0116"
           id="tspan2599"
           style="stroke-width:0.352778">Copyright</tspan></text>
      <text
         style="font-variant:normal;font-weight:normal;font-size:2.46944px;font-family:Helvetica;-inkscape-font-specification:Helvetica;writing-mode:lr-tb;fill:#000000;fill-opacity:1;fill-rule:nonzero;stroke:none;stroke-width:0.352778"
         id="text2609"
         x="67.076981"
         y="149.0116"><tspan
           x="67.076981 68.438385 69.799789 71.161194 72.522598 73.197495 73.870911 75.195274 76.830788 78.74041 80.375923 81.049339 81.724243 83.085648 84.308762"
           y="149.0116"
           id="tspan2607"
           style="stroke-width:0.352778">2012, TAOS Inc.</tspan></text>
      <text
         style="font-variant:normal;font-weight:bold;font-size:3.52778px;font-family:Helvetica;-inkscape-font-specification:Helvetica-Bold;writing-mode:lr-tb;fill:#000000;fill-opacity:1;fill-rule:nonzero;stroke:none;stroke-width:0.352778"
         id="text2635"
         x="61.487652"
         y="144.88409"><tspan
           x="61.487652 63.636776 64.611145 66.760269 68.909393 70.275345 72.230438 73.20517"
           y="144.88409"
           id="tspan2633"
           style="stroke-width:0.352778">Figure 2</tspan></text>
      <g
         id="g2637"
         transform="matrix(0.35277777,0,0,-0.35277777,47.72932,62.418765)">
        <path
           d="M 0,0 V -191.88"
           style="fill:none;stroke:#000000;stroke-width:0.48;stroke-linecap:round;stroke-linejoin:round;stroke-miterlimit:10;stroke-dasharray:none;stroke-opacity:1"
           id="path2639" />
      </g>
      <g
         id="g2641"
         transform="matrix(0.35277777,0,0,-0.35277777,106.91132,62.418765)">
        <path
           d="M 0,0 H -191.76 V -191.88 H 0 V 0"
           style="fill:none;stroke:#000000;stroke-width:0.96;stroke-linecap:round;stroke-linejoin:round;stroke-miterlimit:10;stroke-dasharray:none;stroke-opacity:1"
           id="path2643" />
      </g>
      <g
         id="g2645"
         transform="matrix(0.35277777,0,0,-0.35277777,98.444652,62.418765)">
        <path
           d="M 0,0 V -191.88"
           style="fill:none;stroke:#000000;stroke-width:0.48;stroke-linecap:round;stroke-linejoin:round;stroke-miterlimit:10;stroke-dasharray:none;stroke-opacity:1"
           id="path2647" />
      </g>
      <g
         id="g2649"
         transform="matrix(0.35277777,0,0,-0.35277777,90.020319,130.10976)">
        <path
           d="M 0,0 V 191.88"
           style="fill:none;stroke:#000000;stroke-width:0.48;stroke-linecap:round;stroke-linejoin:round;stroke-miterlimit:10;stroke-dasharray:none;stroke-opacity:1"
           id="path2651" />
      </g>
      <g
         id="g2653"
         transform="matrix(0.35277777,0,0,-0.35277777,81.553652,62.418765)">
        <path
           d="M 0,0 V -191.88"
           style="fill:none;stroke:#000000;stroke-width:0.48;stroke-linecap:round;stroke-linejoin:round;stroke-miterlimit:10;stroke-dasharray:none;stroke-opacity:1"
           id="path2655" />
      </g>
      <g
         id="g2657"
         transform="matrix(0.35277777,0,0,-0.35277777,73.086986,130.10976)">
        <path
           d="M 0,0 V 191.88"
           style="fill:none;stroke:#000000;stroke-width:0.48;stroke-linecap:round;stroke-linejoin:round;stroke-miterlimit:10;stroke-dasharray:none;stroke-opacity:1"
           id="path2659" />
      </g>
      <g
         id="g2661"
         transform="matrix(0.35277777,0,0,-0.35277777,64.620319,62.418765)">
        <path
           d="M 0,0 V -191.88"
           style="fill:none;stroke:#000000;stroke-width:0.48;stroke-linecap:round;stroke-linejoin:round;stroke-miterlimit:10;stroke-dasharray:none;stroke-opacity:1"
           id="path2663" />
      </g>
      <g
         id="g2665"
         transform="matrix(0.35277777,0,0,-0.35277777,56.153653,130.10976)">
        <path
           d="M 0,0 V 191.88"
           style="fill:none;stroke:#000000;stroke-width:0.48;stroke-linecap:round;stroke-linejoin:round;stroke-miterlimit:10;stroke-dasharray:none;stroke-opacity:1"
           id="path2667" />
      </g>
      <text
         style="font-variant:normal;font-weight:bold;font-size:2.82222px;font-family:Helvetica;-inkscape-font-specification:Helvetica-Bold;writing-mode:lr-tb;fill:#000000;fill-opacity:1;fill-rule:nonzero;stroke:none;stroke-width:0.352778"
         id="text2671"
         x="36.891987"
         y="134.21609"><tspan
           x="36.891987 38.461143 40.030296 53.655987 55.225143 56.794296 70.589317 72.158478 73.727631 87.86132 89.430473 90.999634"
           y="134.21609"
           id="tspan2669"
           style="stroke-width:0.352778">300500700900</tspan></text>
      <text
         transform="rotate(-90)"
         style="font-variant:normal;font-weight:bold;font-size:2.82222px;font-family:Helvetica;-inkscape-font-specification:Helvetica-Bold;writing-mode:lr-tb;fill:#000000;fill-opacity:1;fill-rule:nonzero;stroke:none;stroke-width:0.352778"
         id="text2675"
         x="-111.94876"
         y="30.457319"><tspan
           x="-111.94876 -109.91112 -108.34196 -107.55738 -105.98823 -105.04842 -104.26385 -102.69469 -101.12554 -100.26138 -98.223732 -96.654572 -95.085419 -93.361038 -91.636665 -89.912285 -88.343132 -87.558548 -85.989395 -85.204819 -84.265015"
           y="30.457319"
           id="tspan2673"
           style="stroke-width:0.352778">Relative Responsivity</tspan></text>
      <text
         style="font-variant:normal;font-weight:bold;font-size:2.82222px;font-family:Helvetica;-inkscape-font-specification:Helvetica-Bold;writing-mode:lr-tb;fill:#000000;fill-opacity:1;fill-rule:nonzero;stroke:none;stroke-width:0.352778"
         id="text2679"
         x="103.77865"
         y="134.21609"><tspan
           x="103.77865 105.17565 106.7448 108.31396"
           y="134.21609"
           id="tspan2677"
           style="stroke-width:0.352778">1100</tspan></text>
      <text
         style="font-variant:normal;font-weight:normal;font-size:2.82222px;font-family:Symbol;-inkscape-font-specification:Symbol;writing-mode:lr-tb;fill:#000000;fill-opacity:1;fill-rule:nonzero;stroke:none;stroke-width:0.352778"
         id="text2683"
         x="59.878986"
         y="137.94144"><tspan
           x="59.878986"
           y="137.94144"
           id="tspan2681"
           style="stroke-width:0.352778">λ</tspan></text>
      <text
         style="font-variant:normal;font-weight:bold;font-size:2.82222px;font-family:Helvetica;-inkscape-font-specification:Helvetica-Bold;writing-mode:lr-tb;fill:#000000;fill-opacity:1;fill-rule:nonzero;stroke:none;stroke-width:0.352778"
         id="text2687"
         x="62.22002"
         y="137.94144"><tspan
           x="62.22002 63.866505 64.641205 67.210556 68.778015 70.345482 71.912941 72.695824 74.26329 75.98597 77.708656 78.646759 80.369446 81.172371 82.818855 83.62178 85.34446"
           y="137.94144"
           id="tspan2685"
           style="stroke-width:0.352778">− Wavelength − nm</tspan></text>
      <text
         style="font-variant:normal;font-weight:bold;font-size:3.175px;font-family:Helvetica;-inkscape-font-specification:Helvetica-Bold;writing-mode:lr-tb;fill:#000000;fill-opacity:1;fill-rule:nonzero;stroke:none;stroke-width:0.352778"
         id="text2693"
         x="40.786652"
         y="56.238098"><tspan
           x="40.786652 42.90406 45.196095 47.665924 49.548382 52.018215 54.310246 55.192581 57.662411 59.954445 62.036926 62.919258 65.036667 67.154076 69.271484 71.563515 73.50312 75.795158 78.087189 80.026794 80.909126 83.201164 85.318565 87.435974 89.553383 92.023216 94.315247 96.432655 97.314987 99.432396 100.31473 102.25433"
           y="56.238098"
           id="tspan2689"
           style="stroke-width:0.352778">PHOTODIODE SPECTRAL RESPONSIVITY</tspan><tspan
           x="67.923378 70.215729 72.685875 74.978226"
           y="60.089375"
           id="tspan2691"
           style="stroke-width:0.352778">RGBC</tspan></text>
      <g
         id="g2695"
         transform="matrix(0.35277777,0,0,-0.35277777,39.262653,109.91676)">
        <path
           d="M 0,0 H 191.76"
           style="fill:none;stroke:#000000;stroke-width:0.48;stroke-linecap:round;stroke-linejoin:round;stroke-miterlimit:10;stroke-dasharray:none;stroke-opacity:1"
           id="path2697" />
      </g>
      <g
         id="g2699"
         transform="matrix(0.35277777,0,0,-0.35277777,39.262653,116.73243)">
        <path
           d="M 0,0 H 191.76"
           style="fill:none;stroke:#000000;stroke-width:0.48;stroke-linecap:round;stroke-linejoin:round;stroke-miterlimit:10;stroke-dasharray:none;stroke-opacity:1"
           id="path2701" />
      </g>
      <g
         id="g2703"
         transform="matrix(0.35277777,0,0,-0.35277777,39.262653,123.59043)">
        <path
           d="M 0,0 H 191.76"
           style="fill:none;stroke:#000000;stroke-width:0.48;stroke-linecap:round;stroke-linejoin:round;stroke-miterlimit:10;stroke-dasharray:none;stroke-opacity:1"
           id="path2705" />
      </g>
      <g
         id="g2707"
         transform="matrix(0.35277777,0,0,-0.35277777,39.262653,89.385098)">
        <path
           d="M 0,0 H 191.76"
           style="fill:none;stroke:#000000;stroke-width:0.48;stroke-linecap:round;stroke-linejoin:round;stroke-miterlimit:10;stroke-dasharray:none;stroke-opacity:1"
           id="path2709" />
      </g>
      <g
         id="g2711"
         transform="matrix(0.35277777,0,0,-0.35277777,39.262653,96.243098)">
        <path
           d="M 0,0 H 191.76"
           style="fill:none;stroke:#000000;stroke-width:0.48;stroke-linecap:round;stroke-linejoin:round;stroke-miterlimit:10;stroke-dasharray:none;stroke-opacity:1"
           id="path2713" />
      </g>
      <g
         id="g2715"
         transform="matrix(0.35277777,0,0,-0.35277777,39.262653,103.05876)">
        <path
           d="M 0,0 H 191.76"
           style="fill:none;stroke:#000000;stroke-width:0.48;stroke-linecap:round;stroke-linejoin:round;stroke-miterlimit:10;stroke-dasharray:none;stroke-opacity:1"
           id="path2717" />
      </g>
      <g
         id="g2719"
         transform="matrix(0.35277777,0,0,-0.35277777,39.262653,82.611765)">
        <path
           d="M 0,0 H 191.76"
           style="fill:none;stroke:#000000;stroke-width:0.48;stroke-linecap:round;stroke-linejoin:round;stroke-miterlimit:10;stroke-dasharray:none;stroke-opacity:1"
           id="path2721" />
      </g>
      <g
         id="g2723"
         transform="matrix(0.35277777,0,0,-0.35277777,39.262653,68.938098)">
        <path
           d="M 0,0 H 191.76"
           style="fill:none;stroke:#000000;stroke-width:0.48;stroke-linecap:round;stroke-linejoin:round;stroke-miterlimit:10;stroke-dasharray:none;stroke-opacity:1"
           id="path2725" />
      </g>
      <g
         id="g2727"
         transform="matrix(0.35277777,0,0,-0.35277777,39.262653,75.796098)">
        <path
           d="M 0,0 H 191.76"
           style="fill:none;stroke:#000000;stroke-width:0.48;stroke-linecap:round;stroke-linejoin:round;stroke-miterlimit:10;stroke-dasharray:none;stroke-opacity:1"
           id="path2729" />
      </g>
      <text
         style="font-variant:normal;font-weight:bold;font-size:2.82222px;font-family:Helvetica;-inkscape-font-specification:Helvetica-Bold;writing-mode:lr-tb;fill:#000000;fill-opacity:1;fill-rule:nonzero;stroke:none;stroke-width:0.352778"
         id="text2753"
         x="34.224987"
         y="124.14076"><tspan
           x="34.224987 35.794144 36.57872"
           y="124.14076"
           id="tspan2731"
           style="stroke-width:0.352778">0.1</tspan><tspan
           x="34.224987 35.794144 36.57872"
           y="117.66376"
           id="tspan2733"
           style="stroke-width:0.352778">0.2</tspan><tspan
           x="34.224987 35.794144 36.57872"
           y="110.67876"
           id="tspan2735"
           style="stroke-width:0.352778">0.3</tspan><tspan
           x="34.224987 35.794144 36.57872"
           y="104.15942"
           id="tspan2737"
           style="stroke-width:0.352778">0.4</tspan><tspan
           x="34.224987 35.794144 36.57872"
           y="97.640091"
           id="tspan2739"
           style="stroke-width:0.352778">0.5</tspan><tspan
           x="34.224987 35.794144 36.57872"
           y="90.86676"
           id="tspan2741"
           style="stroke-width:0.352778">0.6</tspan><tspan
           x="34.224987 35.794144 36.57872"
           y="83.88176"
           id="tspan2743"
           style="stroke-width:0.352778">0.7</tspan><tspan
           x="34.224987 35.794144 36.57872"
           y="77.616425"
           id="tspan2745"
           style="stroke-width:0.352778">0.8</tspan><tspan
           x="34.224987 35.794144 36.57872"
           y="70.843094"
           id="tspan2747"
           style="stroke-width:0.352778">0.9</tspan><tspan
           x="36.510986"
           y="63.646431"
           id="tspan2749"
           style="stroke-width:0.352778">1</tspan><tspan
           x="36.595654"
           y="130.74477"
           id="tspan2751"
           style="stroke-width:0.352778">0</tspan></text>
      <path
         d="m 91.713652,80.749098 h 14.774328 v -2.794 H 91.713652 Z"
         style="fill:#ffffff;fill-opacity:1;fill-rule:nonzero;stroke:none;stroke-width:0.352778"
         id="path2755" />
      <text
         style="font-variant:normal;font-weight:bold;font-size:2.82222px;font-family:Helvetica;-inkscape-font-specification:Helvetica-Bold;writing-mode:lr-tb;fill:#000000;fill-opacity:1;fill-rule:nonzero;stroke:none;stroke-width:0.352778"
         id="text2759"
         x="92.729652"
         y="80.071762"><tspan
           x="92.729652"
           y="80.071762"
           id="tspan2757"
           style="stroke-width:0.352778">T</tspan></text>
      <text
         style="font-variant:normal;font-weight:bold;font-size:2.29306px;font-family:Helvetica;-inkscape-font-specification:Helvetica-Bold;writing-mode:lr-tb;fill:#000000;fill-opacity:1;fill-rule:nonzero;stroke:none;stroke-width:0.352778"
         id="text2763"
         x="94.295982"
         y="80.664429"><tspan
           x="94.295982"
           y="80.664429"
           id="tspan2761"
           style="stroke-width:0.352778">A</tspan></text>
      <text
         style="font-variant:normal;font-weight:bold;font-size:2.82222px;font-family:Helvetica;-inkscape-font-specification:Helvetica-Bold;writing-mode:lr-tb;fill:#000000;fill-opacity:1;fill-rule:nonzero;stroke:none;stroke-width:0.352778"
         id="text2767"
         x="96.749908"
         y="80.071762"><tspan
           x="96.749908 98.398087 99.201004 100.77016"
           y="80.071762"
           id="tspan2765"
           style="stroke-width:0.352778">= 25</tspan></text>
      <text
         style="font-variant:normal;font-weight:normal;font-size:2.82222px;font-family:Symbol;-inkscape-font-specification:Symbol;writing-mode:lr-tb;fill:#000000;fill-opacity:1;fill-rule:nonzero;stroke:none;stroke-width:0.352778"
         id="text2771"
         x="102.33932"
         y="80.071762"><tspan
           x="102.33932"
           y="80.071762"
           id="tspan2769"
           style="stroke-width:0.352778">°</tspan></text>
      <text
         style="font-variant:normal;font-weight:bold;font-size:2.82222px;font-family:Helvetica;-inkscape-font-specification:Helvetica-Bold;writing-mode:lr-tb;fill:#000000;fill-opacity:1;fill-rule:nonzero;stroke:none;stroke-width:0.352778"
         id="text2775"
         x="103.48232"
         y="80.071762"><tspan
           x="103.48232"
           y="80.071762"
           id="tspan2773"
           style="stroke-width:0.352778">C</tspan></text>
      <path
         d="M 84.262985,73.933431 H 106.19165 V 64.874098 H 84.262985 Z"
         style="fill:#ffffff;fill-opacity:1;fill-rule:nonzero;stroke:none;stroke-width:0.352778"
         id="path2777" />
      <text
         style="font-variant:normal;font-weight:bold;font-size:2.82222px;font-family:Helvetica;-inkscape-font-specification:Helvetica-Bold;writing-mode:lr-tb;fill:#000000;fill-opacity:1;fill-rule:nonzero;stroke:none;stroke-width:0.352778"
         id="text2785"
         x="85.829315"
         y="66.990768"><tspan
           x="85.829315 87.866966 89.591339 90.689186 93.198143 94.767296 95.551872 96.336449 97.747566 99.316719 101.0411 101.96143 102.90122"
           y="66.990768"
           id="tspan2779"
           style="stroke-width:0.352778">Normalized to</tspan><tspan
           x="91.713654 93.751297 94.535873 96.105026 97.674187"
           y="70.123428"
           id="tspan2781"
           style="stroke-width:0.352778">Clear</tspan><tspan
           x="88.580986 91.332649 92.153915 93.723076 95.292229 96.861382 97.682655 99.407028"
           y="73.213768"
           id="tspan2783"
           style="stroke-width:0.352778">@ 755 nm</tspan></text>
      <path
         d="m 70.123652,88.496098 h 6.688667 v -2.794 h -6.688667 z"
         style="fill:#ffffff;fill-opacity:1;fill-rule:nonzero;stroke:none;stroke-width:0.352778"
         id="path2787" />
      <text
         style="font-variant:normal;font-weight:bold;font-size:2.46944px;font-family:Helvetica;-inkscape-font-specification:Helvetica-Bold;writing-mode:lr-tb;fill:#000000;fill-opacity:1;fill-rule:nonzero;stroke:none;stroke-width:0.352778"
         id="text2791"
         x="71.181984"
         y="87.818764"><tspan
           x="71.181984 72.964928 74.337936"
           y="87.818764"
           id="tspan2789"
           style="stroke-width:0.352778">Red</tspan></text>
      <g
         id="g2793"
         transform="matrix(0.35277777,0,0,-0.35277777,66.567653,83.797098)">
        <path
           d="M 0,0 -2.28,-3.96 0,0 H -4.44 0 L -2.28,-3.96 -4.44,0 Z"
           style="fill:#000000;fill-opacity:1;fill-rule:evenodd;stroke:#000000;stroke-width:0.48;stroke-linecap:round;stroke-linejoin:round;stroke-miterlimit:10;stroke-dasharray:none;stroke-opacity:1"
           id="path2795" />
      </g>
      <g
         id="g2797"
         transform="matrix(0.35277777,0,0,-0.35277777,69.615652,86.294765)">
        <path
           d="M 0,0 -11.28,6.12"
           style="fill:none;stroke:#000000;stroke-width:0.48;stroke-linecap:round;stroke-linejoin:round;stroke-miterlimit:10;stroke-dasharray:none;stroke-opacity:1"
           id="path2799" />
      </g>
      <path
         d="m 70.123652,93.533764 h 9.186334 v -2.794 h -9.186334 z"
         style="fill:#ffffff;fill-opacity:1;fill-rule:nonzero;stroke:none;stroke-width:0.352778"
         id="path2801" />
      <text
         style="font-variant:normal;font-weight:bold;font-size:2.46944px;font-family:Helvetica;-inkscape-font-specification:Helvetica-Bold;writing-mode:lr-tb;fill:#000000;fill-opacity:1;fill-rule:nonzero;stroke:none;stroke-width:0.352778"
         id="text2805"
         x="71.181984"
         y="92.85643"><tspan
           x="71.181984 73.10321 74.063828 75.436836 76.809853"
           y="92.85643"
           id="tspan2803"
           style="stroke-width:0.352778">Green</tspan></text>
      <g
         id="g2807"
         transform="matrix(0.35277777,0,0,-0.35277777,63.011653,87.014431)">
        <path
           d="M 0,0 -2.28,-3.96 0,0 H -4.56 0 L -2.28,-3.96 -4.56,0 Z"
           style="fill:#000000;fill-opacity:1;fill-rule:evenodd;stroke:#000000;stroke-width:0.48;stroke-linecap:round;stroke-linejoin:round;stroke-miterlimit:10;stroke-dasharray:none;stroke-opacity:1"
           id="path2809" />
      </g>
      <g
         id="g2811"
         transform="matrix(0.35277777,0,0,-0.35277777,69.403986,91.332431)">
        <path
           d="M 0,0 -20.76,11.28"
           style="fill:none;stroke:#000000;stroke-width:0.48;stroke-linecap:round;stroke-linejoin:round;stroke-miterlimit:10;stroke-dasharray:none;stroke-opacity:1"
           id="path2813" />
      </g>
      <path
         d="m 50.480986,66.948432 h 8.212667 v -2.794 h -8.212667 z"
         style="fill:#ffffff;fill-opacity:1;fill-rule:nonzero;stroke:none;stroke-width:0.352778"
         id="path2815" />
      <text
         style="font-variant:normal;font-weight:bold;font-size:2.46944px;font-family:Helvetica;-inkscape-font-specification:Helvetica-Bold;writing-mode:lr-tb;fill:#000000;fill-opacity:1;fill-rule:nonzero;stroke:none;stroke-width:0.352778"
         id="text2819"
         x="51.539322"
         y="66.271095"><tspan
           x="51.539322 53.322258 54.008766 55.381775 56.754787"
           y="66.271095"
           id="tspan2817"
           style="stroke-width:0.352778">Clear</tspan></text>
      <g
         id="g2821"
         transform="matrix(0.35277777,0,0,-0.35277777,59.751986,68.049098)">
        <path
           d="M 0,0 2.28,3.96 0,0 H 4.56 0 L 2.28,3.96 4.56,0 Z"
           style="fill:#000000;fill-opacity:1;fill-rule:evenodd;stroke:#000000;stroke-width:0.48;stroke-linecap:round;stroke-linejoin:round;stroke-miterlimit:10;stroke-dasharray:none;stroke-opacity:1"
           id="path2823" />
      </g>
      <g
         id="g2825"
         transform="matrix(0.35277777,0,0,-0.35277777,57.169653,65.805432)">
        <path
           d="M 0,0 9.96,-5.4"
           style="fill:none;stroke:#000000;stroke-width:0.48;stroke-linecap:round;stroke-linejoin:round;stroke-miterlimit:10;stroke-dasharray:none;stroke-opacity:1"
           id="path2827" />
      </g>
      <g
         id="g2829"
         transform="matrix(0.35277777,0,0,-0.35277777,39.262653,130.10976)">
        <path
           d="M 0,0 H 1.08 1.8 2.52 3.6 4.8 5.88 6.6 7.32 8.4 h 1.2 1.08 0.72 0.72 l 0.72,0.72 h 0.36 1.08 l 0.48,0.6 h 0.72 0.72 0.72 1.08 1.08 l 1.2,0.6 H 21 l 0.72,0.72 0.72,0.6 0.36,1.92 0.36,1.2 v 2.52 l 0.36,2.64 0.36,3.72 v 3.24 l 0.36,3.12 v 8.28 l 0.36,8.88 0.36,9.48 v 5.04 l 0.36,5.76 0.48,12.12 0.36,6.24 v 5.16 l 0.36,5.04 v 3.84 l 0.36,3.72 0.36,3.24 v 2.52 l 0.36,1.32 0.36,1.8 0.72,1.32 h 0.36 v -0.6 h 0.36 0.36 l 0.36,0.6 0.36,1.92 0.48,1.2 0.36,1.32 0.72,1.32 0.36,0.6 0.36,1.92 0.72,1.92 0.36,0.6 0.72,0.6 0.72,1.32 0.72,1.2 0.84,1.32 0.36,1.2 0.36,2.64 0.72,2.52 0.36,2.52 0.72,2.52 0.72,1.32 0.72,1.2 1.2,1.92 0.36,0.6 0.72,0.72 h 0.36 0.36 0.36 l 0.36,0.6 0.36,1.32 0.72,1.8 0.72,1.92 v 0.72 l 0.36,0.6 h 0.36 v -0.6 l 0.48,-0.72 h 0.36 l 0.36,0.72 0.36,1.2 0.36,0.6 0.36,1.32 0.72,1.92 v 0.6 h 0.36 l 0.36,-1.2 v -1.32 l 0.36,-1.92 0.36,-0.6 0.36,0.6 v 1.32 l 0.36,1.92 0.48,1.2 0.72,1.92 0.72,1.92 0.36,1.2 0.36,1.32 v 1.32 h 0.36 v -0.72 l 0.36,-0.6 v -1.92 l 0.36,-1.92 0.36,-0.6 v 0.6 l 0.36,1.32 v 3.12 l 0.36,3.24 0.36,1.2 v 1.32 l 0.84,2.52 0.72,0.6 0.36,-0.6 0.36,-0.6 v -1.32 l 0.36,-0.6 0.36,-0.6 h 0.36 l 0.36,0.6 0.36,1.2 v 1.92 l 0.36,1.92 0.36,1.92 0.36,0.6 0.36,0.72 0.84,1.2 0.36,1.32 0.36,0.6 v 1.32 l 0.36,0.6 h 0.36 v -0.6 l 0.36,-0.72 h 0.36 l 0.36,0.72 v 0.6 l 0.36,0.6 h 0.36 l 0.36,-0.6 0.36,-1.32 0.36,-1.2 h 0.36 v 0.6 l 0.36,1.32 0.48,2.52 v 2.52 l 0.36,0.6 v 0.6 l 0.36,-0.6 v -2.52 l 0.36,-2.52 0.36,-0.6 v 0.6 l 0.36,1.2 v 2.64 l 0.36,3.12 0.36,1.92 v 0.6 l 0.36,0.6 h 0.36 0.36 0.36 l 0.36,1.32 0.36,1.92 v 1.2 h 0.48 v -0.6 -1.2 l 0.36,-1.92 v -3.24 -2.52 l 0.36,-3.12 v -2.52 l 0.36,-1.92 v -1.32 -0.6 l 0.36,0.6 v 0.6 1.32 l 0.36,1.92 0.36,0.6 0.36,-1.92 0.36,-3.12 0.36,-3.84 0.36,-5.04 v -3.24 l 0.36,-3.72 0.36,-8.88 v -9.6"
           style="fill:none;stroke:#000000;stroke-width:1.8;stroke-linecap:round;stroke-linejoin:round;stroke-miterlimit:10;stroke-dasharray:none;stroke-opacity:1"
           id="path2831" />
      </g>
      <g
         id="g2833"
         transform="matrix(0.35277777,0,0,-0.35277777,67.033319,81.765098)">
        <path
           d="m 0,0 0.36,-9.48 0.36,-10.2 v -10.68 l 0.48,-10.8 0.36,-10.2 0.36,-10.08 v -10.8 l 0.36,-5.16 v -4.44 l 0.36,-4.44 v -3.12 l 0.36,-3.84 0.36,-3.84 0.36,-2.52 0.36,-1.2 h 0.36 l 0.36,0.6 v 1.92 l 0.36,1.2 0.36,1.32 v 1.92 l 0.36,1.92 h 0.36 l 0.48,-1.32 v -2.52 l 0.36,-2.52 0.36,-3.24 0.36,-3.12 0.36,-3.12 0.36,-3.24 0.36,-2.52 0.72,-4.44 0.36,-3.84 0.36,-1.92 0.72,-1.2 0.36,-1.32 0.84,-0.6 0.72,-1.32 0.72,-0.6 h 0.72 0.36 1.08 0.72 l 0.84,0.6 1.08,0.72 h 1.08 l 1.08,0.6 0.72,0.6 h 0.72 l 1.2,0.72 1.08,0.6 0.36,0.6 h 0.72 0.72 l 0.72,-0.6 h 0.72 l 0.36,0.6 h 0.48 l 0.72,0.6 0.36,1.32 0.72,1.32 0.72,2.52 0.72,3.12 0.72,3.24 v 1.2 l 0.36,0.6 0.36,0.72 0.84,-0.72 0.36,-1.8 0.72,-1.92 0.72,-2.52 0.72,-2.64 0.72,-1.2 0.36,-1.32 1.08,-1.2 h 0.36 0.84 0.72 l 0.72,-0.72 h 1.08 1.08 0.36 l 0.84,0.72 0.72,1.2 0.72,1.32 0.72,1.2 0.36,1.32 0.36,0.6 h 0.72 0.36 0.72 l 0.84,-0.6 0.72,-1.32 1.08,-1.8 1.08,-1.32 1.08,-0.6 0.72,-0.72 0.84,-0.6 h 0.72 0.36 0.36 l 0.72,-0.6 h 1.08 0.72 0.72 0.84 l 0.36,-0.6 h 1.08 1.08 l 0.72,-0.72 h 0.72 l 0.72,0.72 h 0.48 0.36 l 0.72,-0.72 h 0.72 l 0.72,0.72 h 1.08 1.08 1.2 l 0.72,0.6 h 0.72 0.72 l 0.36,-0.6 1.08,-0.72 h 1.08 0.84 0.72 1.08 0.36 l 0.72,-0.6 h 1.08 0.72 0.84 0.72 l 0.36,-0.6 h 1.08 l 1.08,0.6 0.72,0.6 h 0.84 1.08 0.36 0.72 l 0.36,0.72 0.72,0.6 0.72,0.6 h 0.72 1.2 l 1.08,0.6 1.08,1.32 0.72,0.6 h 0.72 1.08 l 1.2,-0.6 1.08,-1.32 0.72,-0.6 0.72,-0.6 1.08,-0.6 1.2,-1.32 1.08,-1.32 0.72,-0.6 0.72,-0.6 1.08,-1.32 1.08,-0.6 1.2,-0.6 0.72,-0.72 h 0.72 1.08"
           style="fill:none;stroke:#000000;stroke-width:1.8;stroke-linecap:round;stroke-linejoin:round;stroke-miterlimit:10;stroke-dasharray:none;stroke-opacity:1"
           id="path2835" />
      </g>
      <g
         id="g2837"
         transform="matrix(0.35277777,0,0,-0.35277777,39.897653,130.10976)">
        <path
           d="M 0,0 H 1.08 1.8 2.52 3.6 4.68 5.88 6.6 7.32 8.4 h 1.08 1.08 0.72 0.72 1.08 1.08 1.08 0.72 0.72 1.08 l 0.36,0.72 h 0.84 1.08 0.72 0.72 l 1.08,1.2 0.36,0.6 0.72,1.92 0.36,1.8 v 1.92 l 0.72,4.32 0.36,1.92 0.36,2.4 0.36,1.92 0.36,1.2 h 0.36 0.36 l 0.36,-1.8 0.36,-1.92 0.72,-2.52 0.36,-2.4 0.72,-1.92 0.72,-1.8 0.72,-1.32 1.08,-2.52 0.36,-0.6 0.84,-0.6 0.36,-0.6 0.72,-0.6 h 0.72 0.72 0.72 l 0.36,-0.6 h 1.08 1.08 0.72 0.72 1.08 l 0.36,0.6 h 0.72 1.08 0.72 0.72 l 1.08,0.6 1.2,0.6 0.72,0.6 0.72,0.6 1.08,1.92 0.36,0.6 0.72,1.32 0.36,1.2 0.72,1.8 0.72,1.92 0.72,1.2 0.72,1.92 0.36,1.2 h 0.36 0.72 l 1.08,-0.6 0.72,-0.6 0.72,-0.6 h 0.72 0.36 l 0.36,1.2 0.72,2.52 0.48,3.72 0.72,4.92 0.72,6.24 0.72,6.84 0.36,4.32 0.36,4.44 0.36,9.24 1.08,19.32 0.36,9.96 0.36,4.92 0.36,5.04 0.36,4.32 0.36,3.72 0.36,3.72 0.36,3.72 0.36,4.92 0.36,5.64 v 5.04 l 0.36,1.8 v 1.92 l 0.36,1.2 v 1.2 l 0.36,0.72 0.36,1.2 v 1.8 l 0.36,1.92 v 4.92 l 0.36,5.64 0.36,1.92 v 1.8 l 0.36,1.92 0.36,1.8 0.72,2.52 0.36,1.8 0.36,2.52 v 2.52 h 0.36 v -0.6 l 0.36,-1.92 v -1.8 -2.52 l 0.36,-4.32 0.36,-1.92 v -0.6 l 0.48,0.6 v 1.92 l 0.36,2.4 0.36,0.72 0.36,-1.32 0.36,-2.52 0.36,-3.72 0.36,-4.32 0.36,-5.64 0.36,-6.72 v -8.16 l 0.36,-8.64 v -5.04 l 0.36,-4.92 V 98.28 l 0.36,-11.16 0.36,-9.96 0.36,-9.96 v -9.36 l 0.36,-8.04 0.36,-3.72 v -3.12 l 0.36,-3.12 0.36,-3.12 0.36,-1.92 0.36,-1.2 h 0.36 l 0.36,1.92 v 1.2 l 0.36,1.92 0.36,1.2 v 1.8 l 0.36,1.92 h 0.36 l 0.36,-1.2 v -1.92 l 0.36,-3.12 0.36,-2.52 0.36,-2.4 0.36,-3.12 0.36,-3.12 0.36,-2.52 0.72,-4.92 V 16.8 l 0.36,-1.8 0.36,-1.92 0.84,-1.2 1.08,-1.92 0.72,-0.6 0.72,-0.6 1.08,-0.6 h 1.08 0.72 l 0.72,0.6 1.08,0.6 1.08,0.6 1.08,0.6 0.72,0.72 h 0.72 l 1.08,0.6 1.08,0.6 h 1.2 0.72 0.72 0.72 0.36 l 0.36,0.6 0.72,0.6 0.36,0.72 0.72,1.2 0.36,1.2 0.36,1.32"
           style="fill:none;stroke:#ff0000;stroke-width:1.8;stroke-linecap:round;stroke-linejoin:round;stroke-miterlimit:10;stroke-dasharray:none;stroke-opacity:1"
           id="path2839" />
      </g>
      <g
         id="g2841"
         transform="matrix(0.35277777,0,0,-0.35277777,78.082319,123.71743)">
        <path
           d="M 0,0 0.72,3 1.44,6.12 V 7.44 L 1.8,8.04 2.16,8.64 2.88,8.04 3.24,6.84 3.96,4.92 4.68,2.4 5.4,0 l 0.72,-1.92 0.36,-1.2 0.36,-0.6 h 0.72 l 1.2,-0.72 0.72,-0.6 h 0.72 1.08 l 1.08,0.6 h 0.36 l 0.72,0.72 0.72,0.6 0.72,1.2 0.72,1.2 0.36,1.32 0.36,0.6 h 0.72 l 0.36,0.6 h 0.72 l 0.72,-0.6 0.72,-1.2 0.72,-1.32 0.36,-1.2 1.08,-1.2 1.2,-0.72 h 0.72 l 0.72,-0.6 1.08,-0.6 h 1.08 1.08 0.72 l 0.72,-0.6 h 1.08 1.08 0.36 l 0.72,-0.6 h 0.72 0.72 1.08 1.2 0.72 0.72 l 0.72,0.6 h 0.36 1.08 1.08 0.72 0.72 1.08 0.36 l 0.72,-0.6 h 1.08 0.72 0.72 1.08 0.36 l 0.72,-0.72 h 1.2 0.72 l 0.72,-0.6 1.08,-0.6 h 1.08 l 0.36,0.6 0.72,0.6 h 0.72 0.72 L 57,-6.84 h 0.36 0.36 0.72 l 0.36,0.6 0.72,0.6 h 0.72 0.72 l 1.08,0.6 1.08,0.6 1.2,1.32 0.72,0.6 h 0.72 1.08 l 1.08,-0.6 1.08,-1.32 0.72,-0.6 0.72,-0.6 1.08,-1.2 1.08,-0.72 1.08,-1.2 0.72,-0.6 0.72,-0.6 1.08,-1.32 1.08,-0.6 0.48,-0.6 0.72,-0.6 h 0.72 0.72 l 1.08,-0.6"
           style="fill:none;stroke:#ff0000;stroke-width:1.8;stroke-linecap:round;stroke-linejoin:round;stroke-miterlimit:10;stroke-dasharray:none;stroke-opacity:1"
           id="path2843" />
      </g>
      <g
         id="g2845"
         transform="matrix(0.35277777,0,0,-0.35277777,39.812986,130.10976)">
        <path
           d="M 0,0 H 1.08 1.8 2.52 3.6 4.8 5.88 6.6 7.32 8.4 h 1.08 1.08 0.72 0.72 1.08 1.08 1.08 0.84 0.72 1.08 1.08 1.08 l 0.72,0.72 h 0.72 0.72 0.36 l 1.08,1.2 0.36,1.32 0.72,1.32 0.72,2.52 0.36,1.32 0.48,0.6 0.72,0.6 0.36,0.72 1.08,0.6 1.08,1.32 0.72,0.6 0.72,0.6 1.08,1.92 1.08,1.92 1.08,1.32 0.72,0.6 0.72,1.32 0.72,1.32 0.36,1.92 0.48,3.12 0.72,3.24 1.08,6.96 0.72,3.84 0.72,3.24 0.72,3.24 0.36,1.92 0.36,1.2 h 0.72 0.36 v -0.6 l 0.36,-0.6 h 0.36 l 0.72,1.2 0.72,2.64 0.72,3.84 0.36,3.84 0.36,3.72 0.36,1.92 0.36,2.64 0.48,3.12 0.36,3.84 0.36,3.84 0.36,3.84 0.72,7.08 v 3.84 l 0.36,2.52 0.36,1.32 v 1.2 l 0.36,1.32 0.36,1.32 0.36,3.12 v 3.24 l 0.36,3.84 0.36,3.24 0.36,1.92 0.36,1.92 0.72,2.52 0.72,3.24 v 1.2 l 0.36,0.72 0.36,-0.72 v -1.2 l 0.36,-1.92 0.36,-0.72 0.36,0.72 v 1.2 l 0.36,1.32 0.36,0.6 h 0.72 l 0.84,-1.2 0.36,-1.92 0.36,-3.24 V 117 l 0.36,-2.52 0.36,-1.92 v -1.32 l 0.72,-3.12 0.36,-3.84 0.72,-3.84 0.72,-4.44 0.72,-5.16 0.72,-5.16 0.36,-5.04 0.36,-5.76 0.72,-6.48 1.08,-12.12 0.72,-6.36 0.72,-6.36 0.72,-5.16 0.36,-5.16 0.48,-5.04 0.36,-3.24 0.36,-1.92 0.36,-1.92 v -1.2 l 0.72,-1.92 0.72,-1.92 0.72,-1.92 0.72,-1.32 0.36,-0.6 0.36,-1.32 0.72,-0.6 L 75,9.6 h 0.72 0.72 L 77.16,9 78.24,7.68 78.6,6.48 79.32,5.16 79.8,3.84 80.52,2.64 h 0.72 0.72 0.72 0.36 l 0.36,0.6 0.72,0.6 h 0.36 l 0.72,-0.6 h 0.72 l 0.72,-0.6 1.08,-0.72 h 1.08 1.08 l 0.84,-0.6 h 0.72 0.72 l 0.36,0.6 h 1.08 0.72 0.72 l 0.72,0.72 h 0.36 1.08 1.08 L 99,3.24 h 0.72 1.08 1.2 l 1.08,0.6 0.72,0.72 h 0.72 l 1.08,0.6 1.08,1.32 0.36,0.6 0.72,0.6 0.72,1.32 0.72,1.32 0.72,1.2 0.36,1.32 0.36,0.6 0.72,0.72 0.36,-0.72 0.84,-1.2 0.72,-1.32 0.72,-0.6 1.08,-1.32 1.08,-0.6 h 1.08 0.72 l 0.72,0.6 1.08,0.6 1.08,1.32 1.08,1.32 0.84,0.6 0.72,1.32 1.08,1.92 1.08,1.92 0.36,0.6 0.72,0.6 0.72,-0.6 0.72,-0.6 0.72,-1.32 0.36,-1.32 0.36,-0.6"
           style="fill:none;stroke:#01ff00;stroke-width:1.8;stroke-linecap:round;stroke-linejoin:round;stroke-miterlimit:10;stroke-dasharray:none;stroke-opacity:1"
           id="path2847" />
      </g>
      <g
         id="g2849"
         transform="matrix(0.35277777,0,0,-0.35277777,85.532985,124.90276)">
        <path
           d="M 0,0 H 0.72 1.8 2.52 l 0.72,-0.6 h 1.2 l 1.08,-0.72 1.08,-0.6 h 0.72 0.72 1.08 1.08 0.36 l 0.72,-0.6 h 0.72 0.72 1.08 1.2 0.72 0.72 l 0.72,0.6 h 0.36 1.08 1.08 0.72 0.72 l 1.08,-0.6 1.08,-0.72 h 1.08 l 0.84,0.72 h 0.72 0.72 L 27,-3.24 h 1.08 0.36 0.72 l 0.72,-0.6 0.72,-0.6 1.08,-0.72 h 0.36 l 0.72,0.72 1.08,0.6 0.72,0.6 h 0.72 1.2 l 1.08,0.72 1.08,0.6 h 0.72 0.72 0.72 0.36 l 0.36,0.6 0.72,0.72 1.08,1.2 0.72,0.72 h 0.72 l 0.72,0.6 h 0.36 l 1.2,-0.6 0.36,-0.72 0.72,-1.2 0.72,-0.72 0.72,-0.6 1.08,-1.32 1.08,-0.6 1.08,-1.32 0.72,-0.6 0.72,-0.6 1.08,-1.32 1.08,-0.6 1.2,-0.72 h 0.72 l 0.72,-0.6 1.08,-0.6"
           style="fill:none;stroke:#01ff00;stroke-width:1.8;stroke-linecap:round;stroke-linejoin:round;stroke-miterlimit:10;stroke-dasharray:none;stroke-opacity:1"
           id="path2851" />
      </g>
      <g
         id="g2853"
         transform="matrix(0.35277777,0,0,-0.35277777,39.34732,130.06743)">
        <path
           d="M 0,0 H 1.2 1.92 2.64 3.72 4.8 5.88 6.6 7.32 8.4 h 1.08 1.2 0.72 0.72 1.08 1.08 1.08 l 0.72,0.6 h 0.72 1.08 1.08 l 1.2,0.6 h 0.72 l 0.72,0.72 0.72,0.6 0.36,1.32 0.36,1.2 v 1.32 l 0.36,1.92 0.36,2.64 0.36,4.44 v 5.76 l 0.36,7.08 0.36,7.08 v 3.84 l 0.36,4.56 0.36,9 0.36,8.4 0.36,3.84 v 3.24 L 26.64,72 27,74.52 v 1.92 l 0.36,1.92 0.36,2.64 0.72,1.92 0.36,1.2 0.84,1.32 0.72,1.92 0.72,2.64 1.08,3.84 0.36,2.52 0.72,1.92 0.36,1.32 0.72,0.6 0.72,0.72 0.72,0.6 0.72,1.32 0.36,1.32 1.08,2.52 0.48,1.32 0.72,0.6 h 0.72 0.72 l 0.72,-0.6 0.36,-0.72 0.36,-1.92 0.72,-2.52 0.36,-3.24 0.72,-3.84 0.72,-2.52 0.72,-2.64 0.72,-3.24 0.36,-3.84 0.36,-2.52 v -2.64 l 0.36,-2.52 0.36,-1.92 0.48,-1.92 0.36,-1.32 0.36,-1.32 0.36,-1.92 0.72,-3.84 0.36,-5.16 0.36,-3.24 v -3.12 l 0.36,-3.24 0.36,-2.64 0.36,-4.44 0.72,-3.84 0.72,-3.84 0.72,-2.64 0.72,-1.32 0.36,-1.2 0.36,-1.92 0.72,-1.32 h 0.36 0.72 l 0.84,-0.6 0.72,-0.72 0.72,-1.32 0.36,-1.92 1.08,-3.12 1.08,-2.64 0.72,-0.6 0.72,-0.72 h 0.72 l 0.36,0.72 1.08,0.6 1.2,0.72 0.72,0.6 h 0.72 l 0.72,0.6 H 69 69.36 l 0.72,-0.6 h 0.36 l 0.72,0.6 h 0.72 0.72 0.72 0.36 l 0.36,-0.6 0.72,-0.6 h 0.36 l 0.84,0.6 h 0.72 0.72 l 1.08,-1.92 0.36,-1.92 0.72,-1.92 L 79.92,9 80.64,7.08 81.36,6.36 h 0.72 l 0.72,0.72 0.36,0.6 0.36,1.32 0.72,0.6 0.36,-0.6 0.84,-0.72 0.72,-1.2 0.72,-1.32 1.08,-1.92 1.08,-1.32 1.08,-0.6 h 0.72 0.72 1.08 1.08 0.72 0.84 L 96,2.52 h 0.36 1.08 1.08 0.72 0.72 1.08 1.08 1.08 0.84 0.72 l 0.72,0.6 h 0.36 1.08 l 1.08,0.72 0.72,0.6 0.72,0.6 0.72,1.32 0.36,0.72 1.08,1.2 1.08,0.72 h 0.84 l 0.72,-0.72 h 0.72 l 0.36,0.72 1.08,0.6 1.08,1.32 0.72,0.6 h 0.72 l 1.08,1.32 1.08,0.6 h 0.36 l 0.72,0.6 0.84,0.72 0.72,1.32 1.08,1.92 0.36,1.2 0.72,0.72 0.36,0.6 h 0.72 l 0.72,-0.6 0.72,-1.32 0.72,-1.92 0.36,-1.32 0.36,-0.6 h 0.72 l 1.08,-0.72 0.84,-0.6 h 0.72"
           style="fill:none;stroke:#0000ff;stroke-width:1.8;stroke-linecap:round;stroke-linejoin:round;stroke-miterlimit:10;stroke-dasharray:none;stroke-opacity:1"
           id="path2855" />
      </g>
      <g
         id="g2857"
         transform="matrix(0.35277777,0,0,-0.35277777,86.337319,125.3261)">
        <path
           d="m 0,0 h 1.08 0.36 l 0.72,-0.6 h 1.08 0.72 l 0.72,-0.72 h 1.08 1.08 1.08 0.84 l 0.72,-0.6 h 1.08 1.08 0.72 0.72 l 0.72,0.6 h 0.36 1.08 l 0.36,0.72 h 0.72 0.72 0.84 l 1.08,-0.72 0.36,-0.6 0.72,-0.6 h 0.36 l 0.72,0.6 h 0.72 0.72 1.08 1.08 l 1.08,-0.6 h 0.72 l 0.84,-0.72 1.08,-0.6 h 1.08 l 0.36,0.6 0.72,0.72 h 0.72 0.72 l 1.08,0.6 1.08,0.6 1.08,0.72 h 0.72 0.84 0.72 0.36 L 38.28,0 39,0.6 40.08,1.92 40.8,2.64 h 0.72 1.08 L 43.68,1.92 44.76,0.6 45.48,0 l 0.84,-0.6 1.08,-1.32 1.08,-0.6 1.08,-1.32 0.72,-0.6 0.72,-0.72 1.08,-1.2 1.08,-0.72 0.36,-0.6 0.72,-0.72 h 0.72 0.84 L 56.88,-9"
           style="fill:none;stroke:#0000ff;stroke-width:1.8;stroke-linecap:round;stroke-linejoin:round;stroke-miterlimit:10;stroke-dasharray:none;stroke-opacity:1"
           id="path2859" />
      </g>
      <path
         d="m 74.441652,106.4031 h 7.366 v -2.83634 h -7.366 z"
         style="fill:#ffffff;fill-opacity:1;fill-rule:nonzero;stroke:none;stroke-width:0.352778"
         id="path2861" />
      <text
         style="font-variant:normal;font-weight:bold;font-size:2.46944px;font-family:Helvetica;-inkscape-font-specification:Helvetica-Bold;writing-mode:lr-tb;fill:#000000;fill-opacity:1;fill-rule:nonzero;stroke:none;stroke-width:0.352778"
         id="text2865"
         x="75.499985"
         y="105.68343"><tspan
           x="75.499985 77.282928 77.969429 79.478264"
           y="105.68343"
           id="tspan2863"
           style="stroke-width:0.352778">Blue</tspan></text>
      <g
         id="g2867"
         transform="matrix(0.35277777,0,0,-0.35277777,60.090653,113.3881)">
        <path
           d="M 0,0 -2.28,4.08 0,0 H -4.56 0 L -2.28,4.08 -4.56,0 Z"
           style="fill:#000000;fill-opacity:1;fill-rule:evenodd;stroke:#000000;stroke-width:0.48;stroke-linecap:round;stroke-linejoin:round;stroke-miterlimit:10;stroke-dasharray:none;stroke-opacity:1"
           id="path2869" />
      </g>
      <g
         id="g2871"
         transform="matrix(0.35277777,0,0,-0.35277777,74.145319,104.8791)">
        <path
           d="M 0,0 -42.6,-23.04"
           style="fill:none;stroke:#000000;stroke-width:0.48;stroke-linecap:round;stroke-linejoin:round;stroke-miterlimit:10;stroke-dasharray:none;stroke-opacity:1"
           id="path2873" />
      </g>
    </g>
  </g>
</svg>
